<svg id="quran_2_" data-name="quran (2)" xmlns="http://www.w3.org/2000/svg" width="42.579" height="28.32" viewBox="0 0 42.579 28.32">
  <path id="Path_51868" data-name="Path 51868" d="M60.424,8.758V11.03l-17.74-9.2L43.557.323a.643.643,0,0,1,.714-.3l8.273,2.073a11.7,11.7,0,0,1,7.879,6.665Zm0,0" transform="translate(-39.134 0)" fill="#ebe1dc"/>
  <path id="Path_51869" data-name="Path 51869" d="M34.512,26.778,14.69,16.5a.5.5,0,0,1-.213-.671L15,14.814a.5.5,0,0,1,.671-.213l18.836,9.764Zm0,0" transform="translate(-13.222 -13.335)" fill="#a8ebec"/>
  <path id="Path_51870" data-name="Path 51870" d="M295.238,15.831l-.527-1.017a.5.5,0,0,0-.671-.213l-17.094,8.861v2.412l18.08-9.372a.5.5,0,0,0,.213-.671Zm0,0" transform="translate(-253.913 -13.336)" fill="#a8ebec"/>
  <path id="Path_51871" data-name="Path 51871" d="M72.94,49.9,56.827,59.954a.138.138,0,0,1-.2-.059,3.156,3.156,0,0,1,.988-3.867l1.006-.743A3.9,3.9,0,0,0,59.876,53a2.489,2.489,0,0,1,1.311-1.811l7.551-3.914ZM94.006,34.852l-.017-.029a.593.593,0,0,0-.786-.23l-18.522,9.6V46l2.46,1.275L93.444,37.1a1.668,1.668,0,0,0,.561-2.249Zm0,0" transform="translate(-51.65 -31.656)" fill="#01807e"/>
  <path id="Path_51872" data-name="Path 51872" d="M21.289,49.9.785,37.1a1.668,1.668,0,0,1-.561-2.249l.017-.029a.593.593,0,0,1,.786-.23L21.289,45.1Zm15.323,6.129-1.006-.743A3.894,3.894,0,0,1,34.353,53a2.489,2.489,0,0,0-1.311-1.811L23.031,46v4.985L37.4,59.954a.138.138,0,0,0,.2-.059,3.156,3.156,0,0,0-.988-3.867Zm0,0" transform="translate(0 -31.656)" fill="#01807e"/>
  <path id="Path_51873" data-name="Path 51873" d="M257.443,67.1a12.235,12.235,0,0,0-.944,1.284,3.221,3.221,0,0,0-.5,1.737V85.756a.087.087,0,0,0,.14.069l.476-.361a.423.423,0,0,1,.511,0l.476.361a.087.087,0,0,0,.139-.069V67.209a.17.17,0,0,0-.3-.11Zm0,0" transform="translate(-234.71 -61.464)" fill="#059eee"/>
  <path id="Path_51874" data-name="Path 51874" d="M276.945,10.129l16-8.293L292.07.324a.644.644,0,0,0-.714-.3l-8.273,2.073a11.7,11.7,0,0,0-6.137,3.85Zm0,0" transform="translate(-253.913 -0.002)" fill="#dcd2cd"/>
  <path id="Path_51875" data-name="Path 51875" d="M133.9,42.662a18.173,18.173,0,0,0-10.276-6.912A.643.643,0,1,0,123.309,37a16.893,16.893,0,0,1,9.345,6.148l1.244.645Zm0,0" transform="translate(-112.608 -32.759)" fill="#dcd2cd"/>
  <path id="Path_51876" data-name="Path 51876" d="M276.945,45.855a16.9,16.9,0,0,1,8.359-4.972.642.642,0,0,0-.312-1.246,18.169,18.169,0,0,0-8.046,4.392Zm0,0" transform="translate(-253.913 -36.323)" fill="#c8beb9"/>
</svg>
